<svg width="205" height="146" viewBox="0 0 205 146" fill="none" xmlns="http://www.w3.org/2000/svg">
<g clip-path="url(#clip0_114_19)">
<path d="M100 38.7885L88.8562 34.7793M100 38.7885L111.147 34.7925M100 38.7885V52.0988M91.4187 49.2213L98.6688 51.7802C99.1621 51.9543 99.4087 52.0413 99.6617 52.076C99.8862 52.1066 100.114 52.1066 100.338 52.076C100.591 52.0413 100.838 51.9543 101.331 51.7802L108.581 49.2213C109.542 48.8822 110.022 48.7127 110.377 48.4086C110.69 48.1401 110.932 47.7982 111.081 47.4135C111.25 46.9778 111.25 46.4683 111.25 45.4493V36.5507C111.25 35.5317 111.25 35.0223 111.081 34.5867C110.932 34.2019 110.69 33.86 110.377 33.5915C110.022 33.2874 109.542 33.1179 108.581 32.7787L101.331 30.2199C100.838 30.0458 100.591 29.9587 100.338 29.9242C100.114 29.8935 99.8862 29.8935 99.6617 29.9242C99.4087 29.9587 99.1621 30.0458 98.6688 30.2199L91.4187 32.7787C90.4579 33.1179 89.9774 33.2874 89.6228 33.5915C89.3096 33.86 89.0677 34.2019 88.9187 34.5867C88.75 35.0223 88.75 35.5317 88.75 36.5507V45.4493C88.75 46.4683 88.75 46.9778 88.9187 47.4135C89.0677 47.7982 89.3096 48.1401 89.6228 48.4086C89.9774 48.7127 90.4579 48.8822 91.4187 49.2213Z" stroke="black" stroke-width="3" stroke-linecap="round" stroke-linejoin="round"/>
<path d="M66.6776 51.9627L54.8759 50.9743M66.6776 51.9627L76.4108 45.2178M66.6776 51.9627L70.1226 64.8195M61.089 64.261L68.7542 64.8563C69.2759 64.8968 69.5366 64.917 69.7899 64.8849C70.0147 64.8564 70.2345 64.7975 70.4434 64.7099C70.6788 64.6109 70.8945 64.4631 71.326 64.1672L77.6667 59.8191C78.507 59.2428 78.9272 58.9547 79.1911 58.5692C79.4241 58.2288 79.5694 57.8359 79.6137 57.4257C79.6638 56.9613 79.532 56.4691 79.2682 55.4849L76.9651 46.8894C76.7014 45.9052 76.5695 45.4131 76.2939 45.036C76.0504 44.7029 75.7281 44.4353 75.3562 44.2569C74.9348 44.055 74.4269 44.0156 73.411 43.9367L65.7458 43.3415C65.2242 43.301 64.9634 43.2808 64.7101 43.3129C64.4853 43.3414 64.2655 43.4002 64.0566 43.488C63.8212 43.5868 63.6055 43.7347 63.174 44.0306L56.8333 48.3787C55.9929 48.955 55.5728 49.2431 55.3089 49.6286C55.0759 49.969 54.9307 50.3619 54.8864 50.7721C54.8362 51.2365 54.968 51.7286 55.2318 52.7129L57.5349 61.3083C57.7986 62.2926 57.9305 62.7847 58.2062 63.1618C58.4497 63.4949 58.7718 63.7625 59.1439 63.9408C59.5651 64.1428 60.0731 64.1822 61.089 64.261Z" stroke="black" stroke-width="3" stroke-linecap="round" stroke-linejoin="round"/>
<path d="M138.822 49.9627L129.096 43.2059M138.822 49.9627L150.624 48.988M138.822 49.9627L135.377 62.8195M127.833 57.8191L134.174 62.1672C134.605 62.4631 134.821 62.6109 135.057 62.7099C135.266 62.7975 135.485 62.8564 135.71 62.885C135.963 62.917 136.224 62.8968 136.746 62.8563L144.411 62.261C145.427 62.1822 145.935 62.1428 146.356 61.9408C146.728 61.7625 147.05 61.4949 147.294 61.1618C147.569 60.7847 147.701 60.2926 147.965 59.3083L150.268 50.7129C150.532 49.7286 150.664 49.2365 150.614 48.7721C150.569 48.3619 150.424 47.969 150.191 47.6286C149.927 47.2431 149.507 46.955 148.667 46.3787L142.326 42.0306C141.894 41.7347 141.679 41.5868 141.443 41.488C141.234 41.4002 141.015 41.3414 140.79 41.3129C140.537 41.2808 140.276 41.301 139.754 41.3415L132.089 41.9367C131.073 42.0156 130.565 42.055 130.144 42.2569C129.772 42.4353 129.45 42.7029 129.206 43.036C128.93 43.4131 128.799 43.9052 128.535 44.8894L126.232 53.4849C125.968 54.4691 125.836 54.9613 125.886 55.4257C125.931 55.8359 126.076 56.2288 126.309 56.5692C126.573 56.9547 126.993 57.2428 127.833 57.8191Z" stroke="black" stroke-width="3" stroke-linecap="round" stroke-linejoin="round"/>
<g clip-path="url(#clip1_114_19)">
<path d="M70.3475 63.2559C70.4544 63.6287 70.4034 63.9729 70.2058 64.2126C70.0082 64.4523 69.6801 64.568 69.2937 64.5342L59.0955 63.642C58.7091 63.6082 58.296 63.4276 57.9472 63.1401C57.5984 62.8526 57.3424 62.4816 57.2355 62.1087L54.4137 52.2681C54.3068 51.8953 54.3578 51.5511 54.5554 51.3114C54.753 51.0717 55.0811 50.956 55.4675 50.9898L65.6657 51.882C66.0521 51.9158 66.4652 52.0963 66.814 52.3839C67.1628 52.6714 67.4188 53.0424 67.5257 53.4153L70.3475 63.2559Z" fill="#3B88C3"/>
<path d="M59.504 57.4993C58.9556 55.587 59.7034 54.2182 61.4077 54.3673C63.0869 54.5142 64.7166 56.1358 65.2518 58.0022C65.7975 59.9054 65.0607 61.2841 63.3481 61.1343C61.6522 60.9859 60.0497 59.4025 59.504 57.4993ZM63.9487 57.8882C63.6297 56.7756 62.8159 55.7275 61.7715 55.6362C60.7271 55.5448 60.4882 56.5008 60.8073 57.6134C61.1289 58.7349 61.9232 59.7729 62.9843 59.8657C64.0454 59.9585 64.2703 59.0097 63.9487 57.8882Z" fill="white"/>
</g>
<g clip-path="url(#clip2_114_19)">
<rect width="10.2409" height="10.7127" transform="matrix(0.93358 -0.358368 0 1 101 39.972)" fill="#3B88C3"/>
<path d="M111.187 45.7611C111.187 46.0827 111.068 46.4368 110.856 46.7457C110.644 47.0546 110.356 47.2928 110.055 47.4081L102.132 50.4496C101.832 50.5648 101.544 50.5476 101.332 50.4017C101.119 50.2558 101 49.9932 101 49.6717V41.1844C101 40.8629 101.119 40.5087 101.332 40.1998C101.544 39.891 101.832 39.6527 102.132 39.5375L110.055 36.4959C110.356 36.3807 110.644 36.3979 110.856 36.5438C111.068 36.6897 111.187 36.9523 111.187 37.2739V45.7611Z" fill="#3B88C3"/>
<path d="M103.125 41.881C103.125 41.4198 103.434 41.0425 103.789 40.9066C104.143 40.7707 104.452 40.9101 104.452 41.3713V44.5914C104.452 45.4403 104.998 45.8468 105.78 45.5466C106.53 45.2589 107.108 44.384 107.108 43.5719V40.3519C107.108 39.8906 107.418 39.5133 107.772 39.3775C108.126 39.2415 108.427 39.3843 108.427 39.8455V43.1394C108.427 44.6894 107.139 46.3559 105.78 46.8774C104.405 47.4052 103.125 46.7434 103.125 45.1749V41.881Z" fill="white"/>
</g>
<g clip-path="url(#clip3_114_19)">
<rect width="9.1629" height="11.0545" transform="matrix(0.809017 0.587785 -0.241922 0.970296 129.714 45)" fill="#3B88C3"/>
<path d="M134.75 59.9201C134.671 60.2362 134.509 60.4763 134.299 60.5876C134.088 60.6988 133.848 60.6722 133.629 60.5135L127.864 56.3245C127.645 56.1658 127.467 55.888 127.368 55.5523C127.269 55.2166 127.258 54.8504 127.337 54.5343L129.417 46.1918C129.496 45.8757 129.658 45.6356 129.868 45.5243C130.079 45.4131 130.319 45.4397 130.538 45.5984L136.304 49.7874C136.522 49.9461 136.7 50.2239 136.799 50.5596C136.898 50.8953 136.909 51.2615 136.83 51.5776L134.75 59.9201Z" fill="#3B88C3"/>
<path d="M130.72 48.9416C130.841 48.637 131.184 48.4391 131.523 48.6851C131.842 48.917 132.008 49.4305 131.995 49.814L131.837 54.0196L131.849 54.0289L133.515 50.9178C133.668 50.6363 134 50.4847 134.319 50.7167C134.657 50.9624 134.812 51.5221 134.767 51.8826L134.076 57.469C134.068 57.529 134.054 57.5845 134.043 57.6304C133.942 58.037 133.673 58.147 133.418 57.9614C133.092 57.7248 133.017 57.4197 133.081 56.9532L133.642 52.9196L133.629 52.9103L131.898 56.2243C131.798 56.4135 131.598 56.6395 131.253 56.3889C130.909 56.1385 130.866 55.7363 130.876 55.4822L131.075 51.0549L131.062 51.0456L129.748 54.5319C129.595 54.9336 129.414 55.0533 129.089 54.8167C128.833 54.6312 128.694 54.2245 128.795 53.8178C128.806 53.7719 128.82 53.7162 128.84 53.6657L130.72 48.9416Z" fill="white"/>
</g>
</g>
<path d="M31.4204 74.628H35.7044V95.76H44.8124V99H31.4204V74.628ZM50.9462 99.144C49.6742 99.144 48.7022 98.772 48.0302 98.028C47.3582 97.26 47.0222 96.276 47.0222 95.076V81.072H51.1262V94.716C51.1262 95.268 51.2102 95.64 51.3782 95.832C51.5462 96.024 51.7982 96.12 52.1342 96.12C52.2302 96.12 52.3262 96.12 52.4222 96.12C52.5422 96.12 52.6502 96.108 52.7462 96.084C52.8422 96.084 52.9502 96.072 53.0702 96.048L53.5022 98.64C53.3342 98.736 53.1182 98.82 52.8542 98.892C52.6382 98.964 52.3622 99.024 52.0262 99.072C51.7142 99.12 51.3542 99.144 50.9462 99.144ZM49.1462 73.08C49.9142 73.08 50.5022 73.308 50.9102 73.764C51.3182 74.22 51.5222 74.808 51.5222 75.528C51.5222 76.248 51.3062 76.848 50.8742 77.328C50.4662 77.808 49.8542 78.048 49.0382 78.048C48.2702 78.048 47.6702 77.82 47.2382 77.364C46.8302 76.884 46.6262 76.308 46.6262 75.636C46.6262 74.892 46.8302 74.28 47.2382 73.8C47.6702 73.32 48.3062 73.08 49.1462 73.08ZM60.1931 99.144C58.8251 99.144 57.8171 98.772 57.1691 98.028C56.5211 97.26 56.1971 96.288 56.1971 95.112V73.62L60.3011 72.864V94.716C60.3011 95.268 60.4091 95.652 60.6251 95.868C60.8411 96.084 61.1531 96.192 61.5611 96.192C61.8011 96.192 62.0291 96.18 62.2451 96.156C62.4851 96.132 62.7011 96.096 62.8931 96.048C63.1091 96 63.3011 95.952 63.4691 95.904L63.9731 98.496C63.6611 98.616 63.3131 98.724 62.9291 98.82C62.5931 98.916 62.1971 98.988 61.7411 99.036C61.2851 99.108 60.7691 99.144 60.1931 99.144ZM70.6697 99.144C69.3017 99.144 68.2937 98.772 67.6457 98.028C66.9977 97.26 66.6737 96.288 66.6737 95.112V73.62L70.7777 72.864V94.716C70.7777 95.268 70.8857 95.652 71.1017 95.868C71.3177 96.084 71.6297 96.192 72.0377 96.192C72.2777 96.192 72.5057 96.18 72.7217 96.156C72.9617 96.132 73.1777 96.096 73.3697 96.048C73.5857 96 73.7777 95.952 73.9457 95.904L74.4497 98.496C74.1377 98.616 73.7897 98.724 73.4057 98.82C73.0697 98.916 72.6737 98.988 72.2177 99.036C71.7617 99.108 71.2457 99.144 70.6697 99.144ZM91.2749 90.324C91.2749 91.764 91.3589 92.976 91.5269 93.96C91.7189 94.92 91.9229 95.7 92.1389 96.3C92.4029 97.02 92.6909 97.584 93.0029 97.992L89.7989 99.288C89.4869 98.976 89.1989 98.604 88.9349 98.172C88.7189 97.788 88.5149 97.332 88.3229 96.804C88.1309 96.252 88.0109 95.604 87.9629 94.86C87.5549 96.3 86.8949 97.392 85.9829 98.136C85.0949 98.856 83.8829 99.216 82.3469 99.216C81.2189 99.216 80.2349 99.012 79.3949 98.604C78.5789 98.172 77.8949 97.572 77.3429 96.804C76.7909 96.012 76.3829 95.064 76.1189 93.96C75.8549 92.856 75.7229 91.632 75.7229 90.288C75.7229 88.92 75.9269 87.66 76.3349 86.508C76.7669 85.332 77.3549 84.324 78.0989 83.484C78.8669 82.644 79.7789 81.984 80.8349 81.504C81.8909 81.024 83.0549 80.784 84.3269 80.784C85.0469 80.784 85.7909 80.844 86.5589 80.964C87.3509 81.06 88.0829 81.168 88.7549 81.288C89.4269 81.408 89.9909 81.528 90.4469 81.648C90.9269 81.744 91.2029 81.804 91.2749 81.828V90.324ZM83.0309 96.336C83.6309 96.336 84.1829 96.132 84.6869 95.724C85.1909 95.316 85.6229 94.788 85.9829 94.14C86.3669 93.468 86.6549 92.712 86.8469 91.872C87.0629 91.008 87.1709 90.132 87.1709 89.244V84.06C86.9309 83.988 86.5709 83.904 86.0909 83.808C85.6109 83.712 85.1789 83.664 84.7949 83.664C83.8829 83.664 83.1269 83.82 82.5269 84.132C81.9509 84.444 81.4829 84.876 81.1229 85.428C80.7629 85.98 80.5109 86.64 80.3669 87.408C80.2229 88.176 80.1509 89.016 80.1509 89.928C80.1509 90.768 80.1749 91.572 80.2229 92.34C80.2709 93.108 80.3909 93.792 80.5829 94.392C80.7989 94.992 81.0989 95.472 81.4829 95.832C81.8669 96.168 82.3829 96.336 83.0309 96.336ZM96.0024 74.628H100.286V95.76H109.394V99H96.0024V74.628ZM115.528 99.144C114.256 99.144 113.284 98.772 112.612 98.028C111.94 97.26 111.604 96.276 111.604 95.076V81.072H115.708V94.716C115.708 95.268 115.792 95.64 115.96 95.832C116.128 96.024 116.38 96.12 116.716 96.12C116.812 96.12 116.908 96.12 117.004 96.12C117.124 96.12 117.232 96.108 117.328 96.084C117.424 96.084 117.532 96.072 117.652 96.048L118.084 98.64C117.916 98.736 117.7 98.82 117.436 98.892C117.22 98.964 116.944 99.024 116.608 99.072C116.296 99.12 115.936 99.144 115.528 99.144ZM113.728 73.08C114.496 73.08 115.084 73.308 115.492 73.764C115.9 74.22 116.104 74.808 116.104 75.528C116.104 76.248 115.888 76.848 115.456 77.328C115.048 77.808 114.436 78.048 113.62 78.048C112.852 78.048 112.252 77.82 111.82 77.364C111.412 76.884 111.208 76.308 111.208 75.636C111.208 74.892 111.412 74.28 111.82 73.8C112.252 73.32 112.888 73.08 113.728 73.08ZM132.119 99V87.372C132.119 86.364 131.939 85.56 131.579 84.96C131.219 84.336 130.607 84.024 129.743 84.024C129.191 84.024 128.651 84.168 128.123 84.456C127.619 84.72 127.163 85.116 126.755 85.644C126.347 86.172 126.011 86.82 125.747 87.588C125.507 88.332 125.387 89.172 125.387 90.108V99H121.283V89.928C121.283 88.488 121.187 87.288 120.995 86.328C120.803 85.344 120.599 84.552 120.383 83.952C120.119 83.256 119.831 82.692 119.519 82.26L122.759 80.964C122.999 81.228 123.239 81.552 123.479 81.936C123.671 82.272 123.863 82.692 124.055 83.196C124.247 83.676 124.403 84.228 124.523 84.852C125.147 83.412 126.047 82.38 127.223 81.756C128.399 81.108 129.635 80.784 130.931 80.784C132.779 80.784 134.111 81.348 134.927 82.476C135.767 83.58 136.187 85.08 136.187 86.976V99H132.119ZM143.417 102.168C143.777 102.312 144.161 102.456 144.569 102.6C144.977 102.768 145.409 102.924 145.865 103.068C146.321 103.212 146.777 103.332 147.233 103.428C147.713 103.524 148.181 103.572 148.637 103.572C149.981 103.572 150.953 103.164 151.553 102.348C152.153 101.556 152.453 100.524 152.453 99.252C152.453 98.004 152.189 96.744 151.661 95.472C151.253 96.696 150.605 97.632 149.717 98.28C148.853 98.904 147.701 99.216 146.261 99.216C145.133 99.216 144.149 99.012 143.309 98.604C142.493 98.172 141.809 97.572 141.257 96.804C140.705 96.012 140.297 95.064 140.033 93.96C139.769 92.856 139.637 91.632 139.637 90.288C139.637 88.92 139.841 87.66 140.249 86.508C140.681 85.332 141.269 84.324 142.013 83.484C142.781 82.644 143.693 81.984 144.749 81.504C145.805 81.024 146.969 80.784 148.241 80.784C148.817 80.784 149.429 80.82 150.077 80.892C150.749 80.964 151.397 81.06 152.021 81.18C152.669 81.276 153.269 81.384 153.821 81.504C154.397 81.624 154.889 81.732 155.297 81.828L155.117 91.728C155.093 92.448 155.129 93.108 155.225 93.708C155.345 94.308 155.477 94.908 155.621 95.508C155.765 96.084 155.897 96.672 156.017 97.272C156.137 97.872 156.197 98.532 156.197 99.252C156.197 101.796 155.549 103.692 154.253 104.94C152.957 106.188 151.205 106.812 148.997 106.812C148.277 106.812 147.557 106.74 146.837 106.596C146.117 106.476 145.445 106.332 144.821 106.164C144.221 105.996 143.705 105.828 143.273 105.66C142.841 105.492 142.553 105.372 142.409 105.3L143.417 102.168ZM146.945 96.336C147.521 96.336 148.049 96.144 148.529 95.76C149.033 95.376 149.477 94.872 149.861 94.248C150.245 93.6 150.545 92.868 150.761 92.052C150.977 91.236 151.085 90.396 151.085 89.532V84.06C150.845 83.988 150.485 83.904 150.005 83.808C149.525 83.712 149.093 83.664 148.709 83.664C147.797 83.664 147.041 83.82 146.441 84.132C145.865 84.444 145.397 84.876 145.037 85.428C144.677 85.98 144.425 86.64 144.281 87.408C144.137 88.176 144.065 89.016 144.065 89.928C144.065 90.768 144.089 91.572 144.137 92.34C144.185 93.108 144.305 93.792 144.497 94.392C144.713 94.992 145.013 95.472 145.397 95.832C145.781 96.168 146.297 96.336 146.945 96.336ZM166.97 80.64C169.73 80.64 171.734 81.456 172.982 83.088C174.23 84.72 174.854 86.964 174.854 89.82C174.854 91.164 174.686 92.424 174.35 93.6C174.014 94.752 173.498 95.76 172.802 96.624C172.13 97.464 171.278 98.136 170.246 98.64C169.214 99.12 168.014 99.36 166.646 99.36C165.278 99.36 164.09 99.156 163.082 98.748C162.098 98.316 161.282 97.704 160.634 96.912C159.986 96.12 159.506 95.16 159.194 94.032C158.906 92.904 158.762 91.632 158.762 90.216C158.762 88.848 158.93 87.588 159.266 86.436C159.602 85.26 160.106 84.252 160.778 83.412C161.474 82.548 162.338 81.876 163.37 81.396C164.402 80.892 165.602 80.64 166.97 80.64ZM166.61 83.664C165.914 83.664 165.338 83.82 164.882 84.132C164.45 84.444 164.102 84.888 163.838 85.464C163.598 86.016 163.43 86.676 163.334 87.444C163.238 88.188 163.19 88.992 163.19 89.856C163.19 90.744 163.238 91.584 163.334 92.376C163.454 93.168 163.658 93.864 163.946 94.464C164.234 95.04 164.618 95.496 165.098 95.832C165.602 96.168 166.238 96.336 167.006 96.336C167.702 96.336 168.266 96.18 168.698 95.868C169.154 95.556 169.502 95.124 169.742 94.572C170.006 93.996 170.186 93.336 170.282 92.592C170.378 91.848 170.426 91.044 170.426 90.18C170.426 89.292 170.366 88.452 170.246 87.66C170.15 86.868 169.958 86.172 169.67 85.572C169.382 84.972 168.986 84.504 168.482 84.168C168.002 83.832 167.378 83.664 166.61 83.664Z" fill="#31C48D"/>
<defs>
<clipPath id="clip0_114_19">
<rect width="100" height="67.7313" fill="white" transform="translate(53)"/>
</clipPath>
<clipPath id="clip1_114_19">
<rect width="9.73713" height="11.1056" fill="white" transform="matrix(0.996195 0.0871557 0.275637 0.961262 56 52)"/>
</clipPath>
<clipPath id="clip2_114_19">
<rect width="10.2409" height="10.7127" fill="white" transform="matrix(0.93358 -0.358368 0 1 101 39.972)"/>
</clipPath>
<clipPath id="clip3_114_19">
<rect width="9.1629" height="11.0545" fill="white" transform="matrix(0.809017 0.587785 -0.241922 0.970296 129.714 45)"/>
</clipPath>
</defs>
</svg>
