<svg width="200" height="200" viewBox="0 0 200 200" fill="none" xmlns="http://www.w3.org/2000/svg">
<path opacity="0.1" fill-rule="evenodd" clip-rule="evenodd" d="M100 175C141.422 175 175 141.422 175 100C175 58.5787 141.422 25 100 25C58.5787 25 25 58.5787 25 100C25 141.422 58.5787 175 100 175ZM126.867 108.476C133.425 104.728 133.425 95.2717 126.867 91.5242L89.8475 70.3705C84.16 67.1205 77.0833 71.2272 77.0833 77.7777V122.222C77.0833 128.772 84.16 132.879 89.8475 129.629L126.867 108.476Z" fill="#A6C2F8"/>
<path d="M90.8333 73.3333L88.8142 72.1793C84.515 69.723 79.1667 72.8268 79.1667 77.7778V122.223C79.1667 127.173 84.515 130.277 88.8142 127.821L90.8333 126.667L125.833 106.667C130.992 103.719 130.992 96.2808 125.833 93.3333L90.8333 73.3333Z" fill="#88E0B6" stroke="#88E0B6" stroke-width="5" stroke-linecap="round" stroke-linejoin="round"/>
</svg>
