<svg width="150" height="150" viewBox="0 0 150 150" fill="none" xmlns="http://www.w3.org/2000/svg">
<circle cx="50" cy="50" r="50" />
<path opacity="0.1" fill-rule="evenodd" clip-rule="evenodd" d="M75 150C116.422 150 150 116.422 150 75C150 33.5787 116.422 0 75 0C33.5787 0 0 33.5787 0 75C0 116.422 33.5787 150 75 150ZM101.867 83.4758C108.425 79.7283 108.425 70.2717 101.867 66.5242L64.8475 45.3705C59.16 42.1205 52.0833 46.2272 52.0833 52.7777V97.2225C52.0833 103.772 59.16 107.879 64.8475 104.629L101.867 83.4758Z" fill="#A6C2F8"/>
<path d="M65.8333 48.3333L63.8141 47.1793C59.515 44.723 54.1666 47.8268 54.1666 52.7778V97.2225C54.1666 102.173 59.515 105.277 63.8141 102.821L65.8333 101.667L100.833 81.6667C105.992 78.7192 105.992 71.2808 100.833 68.3333L65.8333 48.3333Z" fill="#88E0B6" stroke="#88E0B6" stroke-width="5" stroke-linecap="round" stroke-linejoin="round"/>
</svg>
